<?xml version="1.0" encoding="utf-8"?>
<!-- Generator: Adobe Illustrator 18.1.1, SVG Export Plug-In . SVG Version: 6.00 Build 0)  -->
<svg version="1.1" id="Layer_1" xmlns="http://www.w3.org/2000/svg" xmlns:xlink="http://www.w3.org/1999/xlink" x="0px" y="0px"
	 viewBox="0 0 450 150" enable-background="new 0 0 450 150" xml:space="preserve">
<g>
	<g>
		<g>
			<path fill="#58C6F2" d="M78.8,16.1c-12.8,0-24.7,4.1-34.3,11.1c-17.3,15-25.2,40.7-16.4,62.3c5.2,12.7,15.5,23.2,28,28.5
				c22.5,9.7,51.1-2,59.2-25.8c3.6-11,1.8-24.3-5.1-33.7c2.5,4.9,3.9,10.4,3.9,16.2c0,19.6-15.9,35.4-35.4,35.4
				c-15.3,0-28.4-9.8-33.3-23.4c-3.7-6.9-5-14.8-3.8-22.9c1.8-10.9,7.5-20,16.5-26.7c17.6-13.1,46.4-10.3,62.2,8.1
				c8.9,10.4,13.5,23.2,13.1,36.5c-0.4,15.7-8.7,30.3-20.5,40.8c14.9-10.6,24.7-28.1,24.7-47.8C137.5,42.4,111.2,16.1,78.8,16.1z"/>
		</g>
		<g>
			<path fill="#2075BC" d="M125.5,52.3c-8.4-13.2-21.6-21.8-37-23.3C75.8,28,64.2,31.3,54,40.7c-12.8,11.7-16.7,31-8.5,46.2
				c-1.4-3.8-2.1-7.8-2.1-12.1c0-19.6,15.9-35.4,35.4-35.4c13.9,0,26,8.1,31.8,19.8c9.7,13.6,8.4,33.5-3.1,46.7
				c-12.9,14.5-34.3,19.1-51.2,11.7C38,109.7,25.7,92.2,24.9,72.4C24,53,33.2,36.6,47.1,25.4c-16.2,10.4-27,28.7-27,49.4
				c0,32.4,26.3,58.7,58.7,58.7c15.7,0,29.9-6.1,40.4-16.1C134.6,100,138.9,73.3,125.5,52.3z"/>
		</g>
	</g>
	<g>
		<g>
			<path fill="#A8AAAD" d="M142.6,45.9h18c0.2,0,0.3,0.1,0.3,0.3v22.4h42.5V46.1c0-0.2,0.1-0.3,0.3-0.3h18c0.2,0,0.3,0.1,0.3,0.3
				v57.4c0,0.2-0.1,0.3-0.3,0.3h-18c-0.2,0-0.3-0.1-0.3-0.3V81.1h-42.5v22.4c0,0.2-0.1,0.3-0.3,0.3h-18c-0.2,0-0.3-0.1-0.3-0.3V46.1
				C142.3,45.9,142.4,45.9,142.6,45.9z"/>
			<path fill="#A8AAAD" d="M227.6,45.9H289c5.5,0,10.4,2.4,14.9,7.1c2,2.8,3,5.7,3,8.4v42.1c0,0.2-0.1,0.3-0.3,0.3h-18
				c-0.2,0-0.3-0.1-0.3-0.3V70c0-5.1-2.2-8.4-6.6-10c-1-0.3-2-0.4-2.9-0.4h-33.1v43.9c0,0.2-0.1,0.3-0.3,0.3h-18
				c-0.2,0-0.3-0.1-0.3-0.3V46.1C227.3,45.9,227.4,45.9,227.6,45.9z"/>
		</g>
		<path fill="#231F20" d="M326.7,56.2l-9.8-0.6l4.4-19.6l32.6-4l-16.2,71.7h-21.9L326.7,56.2z"/>
		<path fill="#231F20" d="M340.5,103.7c1.8-4.1,4.7-8.5,10.5-15.8c12.8-15.9,28.6-32.2,42-43.6c10.1-8.6,17.9-12.3,26.4-12.3
			c1.6,0,2.9,0.1,5.7,0.4l-11.7,53.3h14.7l-3.9,17.9h-14.7l-6.6,29.8h-20.9l6.4-29.8H340.5z M403,56.2c-0.7,0.7-1.3,1.3-2,2l-6,5.5
			c-7.6,7.4-15.9,16.2-22,23.3h20.4L403,56.2z"/>
	</g>
</g>
</svg>
