<?xml version="1.0" encoding="utf-8"?>
<!-- Generator: Adobe Illustrator 18.1.1, SVG Export Plug-In . SVG Version: 6.00 Build 0)  -->
<svg version="1.1" id="Layer_1" xmlns="http://www.w3.org/2000/svg" xmlns:xlink="http://www.w3.org/1999/xlink" x="0px" y="0px"
	 viewBox="0 0 7500 2000" enable-background="new 0 0 7500 2000" xml:space="preserve">
<linearGradient id="SVGID_1_" gradientUnits="userSpaceOnUse" x1="-292.0508" y1="-440.5771" x2="4977.2256" y2="-3733.1865" gradientTransform="matrix(-0.9994 3.462818e-002 -3.462818e-002 -0.9994 6060.334 -1298.1445)">
	<stop  offset="0" style="stop-color:#98D5E2;stop-opacity:0"/>
	<stop  offset="0.3645" style="stop-color:#07ADD9;stop-opacity:0.8"/>
	<stop  offset="0.7241" style="stop-color:#1E77BC"/>
	<stop  offset="1" style="stop-color:#1C194B"/>
</linearGradient>
<path fill="url(#SVGID_1_)" d="M6802.8-16.8c517.4,594.2-894.1,1169.1-2826.4,1244c-942.3,36.5-1685.6,15-2510.7-180.5
	C168.4,856.5,312.1,264.1,312.1,264.1s-1176.6,595.6,1002,1349.1c0,0,923.9,335.2,2718.1,378S8881.6,1818,6802.8-16.8z"/>
<g>
	<linearGradient id="SVGID_2_" gradientUnits="userSpaceOnUse" x1="6938.6714" y1="570.4269" x2="292.4237" y2="800.7142">
		<stop  offset="0" style="stop-color:#000000"/>
		<stop  offset="0.3399" style="stop-color:#072845"/>
		<stop  offset="0.6995" style="stop-color:#1E77BC"/>
		<stop  offset="1" style="stop-color:#07ADD9"/>
	</linearGradient>
	<path fill="url(#SVGID_2_)" d="M6830.3-13.6c10.1,15.9,19.4,32.3,27.8,49.3c8.3,17,15.6,34.5,21.7,52.4
		c12.2,35.9,19.2,73.7,19.8,111.8c0.3,19.1-0.9,38.2-3.7,57.1c-2.8,18.9-7.1,37.6-12.8,55.9c-11.3,36.6-27.9,71.4-48.1,103.8
		c-10.1,16.2-21,31.9-32.6,47.1c-11.6,15.2-23.9,29.8-36.7,43.9c-25.6,28.2-53.4,54.5-82.5,79.1c-58.2,49.2-121.3,92.1-186.6,130.7
		c-32.7,19.3-66,37.6-99.7,54.9c-33.7,17.4-67.9,33.8-102.4,49.5c-69,31.4-139.4,59.8-210.5,86c-71.1,26.1-143,50-215.5,71.9
		c-72.5,22-145.5,42.1-218.8,60.7c-146.7,37.1-294.9,68.2-443.9,94.6c-37.2,6.6-74.5,12.9-111.9,18.9c-37.3,6-74.7,11.7-112.1,17.2
		c-74.8,11-149.8,20.8-224.9,29.7c-150.2,17.8-300.8,31.7-451.6,42.2c-150.8,10.5-301.9,17.5-452.9,21.6
		c-75.5,2.1-151.1,3.4-226.7,4c-37.8,0.3-75.6,0.5-113.3,0.4c-37.8-0.1-75.6-0.3-113.3-0.7c-151.1-1.5-302.2-5.8-453.1-12.9
		c-75.5-3.6-150.9-7.8-226.3-12.7c-75.4-5-150.8-10.7-226.1-17.1c-75.3-6.5-150.5-13.7-225.7-21.8c-75.2-8.1-150.2-17-225.2-26.8
		c-149.9-19.7-299.4-43.1-448.1-71.3c-148.7-28.4-296.6-61.5-442.6-102.4c-73-20.5-145.5-43-217.2-68.2
		c-71.6-25.3-142.4-53.3-211.5-85.7c-34.5-16.2-68.6-33.5-101.9-52.3c-33.3-18.8-66-39.1-97.4-61.4c-31.4-22.3-61.5-46.7-89.3-73.9
		c-27.7-27.2-53.1-57.5-73.4-91.5l-0.7-1.1l-0.2-0.6l-7-17.3c-2.3-5.7-4.5-11.6-6.7-17.4c-2.3-5.8-4.3-11.7-6.4-17.5
		c-2.1-5.8-4.1-11.7-6.1-17.6c-2-5.9-3.9-11.8-5.7-17.7c-1.9-5.9-3.6-11.9-5.4-17.9c-0.9-3-1.7-6-2.5-9l-2.4-9l-2.2-9.1
		c-0.7-3-1.5-6-2.2-9.1l-2-9.1c-0.7-3-1.2-6.1-1.8-9.2c-0.6-3.1-1.2-6.1-1.7-9.2c-0.5-3.1-1.1-6.1-1.5-9.2l-1.3-9.3
		c-0.4-3.1-0.8-6.2-1.1-9.3c-0.4-3.1-0.6-6.2-0.9-9.3c-0.3-3.1-0.5-6.2-0.6-9.3c-0.2-3.1-0.3-6.2-0.4-9.3c-0.1-3.1-0.1-6.2-0.1-9.4
		c0-3.1,0.2-6.2,0.3-9.3c0.2-3.1,0.4-6.2,0.7-9.3c0.6-6.2,1.5-12.4,2.9-18.4c0.7-3,1.5-6,2.5-9c1-2.9,2.1-5.9,3.6-8.5
		c-1,2.9-1.6,5.9-2.1,8.9c-0.5,3-0.7,6-1,9c-0.4,6-0.3,12.1,0,18.2c0.1,3,0.4,6,0.6,9c0.3,3,0.6,6,1,9c0.4,3,0.8,6,1.3,9
		c0.5,3,1,6,1.6,8.9c0.6,3,1.1,5.9,1.8,8.9c0.7,2.9,1.3,5.9,2,8.8c0.8,2.9,1.4,5.9,2.2,8.8l2.4,8.7c0.8,2.9,1.7,5.8,2.6,8.7
		c0.8,2.9,1.8,5.8,2.7,8.6c1.8,5.8,3.8,11.5,5.7,17.2c0.9,2.9,2,5.7,3.1,8.5l3.1,8.5l3.3,8.4c1.1,2.8,2.2,5.6,3.4,8.4
		c2.3,5.6,4.5,11.2,7,16.7c2.4,5.5,4.8,11.1,7.3,16.6c2.5,5.5,4.9,11,7.6,16.5c2.6,5.5,5.1,11,7.8,16.4c2.7,5.4,5.3,10.9,8,16.3
		l8.2,16.2l-0.9-1.7c9.5,15.2,20.2,29.7,31.9,43.6c11.6,13.9,24.2,27,37.5,39.6c26.5,25.1,55.5,47.8,85.9,68.7
		c30.4,20.9,62.2,39.9,94.8,57.7c32.6,17.7,66,34.1,100,49.4c33.9,15.3,68.4,29.6,103.2,43.1c34.8,13.5,70,26.1,105.4,38.1
		c70.9,23.9,142.7,45.3,215.1,64.6c72.4,19.4,145.3,36.9,218.7,52.9c73.3,16.1,147,30.6,220.8,44c73.9,13.4,148,25.6,222.3,36.8
		c74.3,11.2,148.7,21.4,223.3,30.7c74.6,9.3,149.3,17.7,224.1,25.4c74.8,7.7,149.7,14.5,224.6,20.7c74.9,6.2,149.9,11.6,225,16.3
		c75,4.7,150.1,8.8,225.3,12.2c150.3,6.8,300.6,11,451,12.6c37.6,0.4,75.2,0.6,112.8,0.7c37.6,0.1,75.2,0,112.8-0.2
		c75.2-0.5,150.4-1.7,225.6-3.4c150.4-3.6,300.6-9.9,450.7-19.5c150-9.6,299.9-22.3,449.3-38.7c74.7-8.2,149.3-17.3,223.8-27.4
		c37.2-5.1,74.4-10.4,111.6-16c37.2-5.6,74.3-11.4,111.3-17.5c148.2-24.5,295.8-53.4,441.9-88.1c146.1-34.7,290.8-75.2,432.6-124.3
		c70.9-24.5,141-51.3,209.8-80.9c68.8-29.7,136.4-62.1,201.7-98.7c32.6-18.3,64.7-37.6,95.9-58.2c31.2-20.6,61.5-42.4,90.6-65.8
		c29.1-23.4,56.8-48.4,82.6-75.2c12.9-13.4,25.3-27.3,37-41.8c11.7-14.4,22.8-29.4,33-44.9c20.5-31,37.6-64.3,49.7-99.4
		c12.1-35.1,18.9-72.1,19.4-109.4c0.6-37.3-5.1-74.7-15.8-110.6c-5.4-18-12-35.6-19.7-52.8C6848.5,19.4,6839.8,2.7,6830.3-13.6z"/>
</g>
<g>
	<linearGradient id="SVGID_3_" gradientUnits="userSpaceOnUse" x1="7357.2725" y1="855.9912" x2="31.3031" y2="1109.8303">
		<stop  offset="0" style="stop-color:#FFFFFF"/>
		<stop  offset="0.3645" style="stop-color:#07ADD9"/>
		<stop  offset="0.7241" style="stop-color:#1E77BC"/>
		<stop  offset="1" style="stop-color:#1C194B"/>
	</linearGradient>
	<path fill="url(#SVGID_3_)" d="M6832.4-21.6c0,0,6.5,6.4,19,18.7c12.5,12.4,31.1,30.8,54.8,55.2c23.8,24.4,52.8,54.8,85.9,91.6
		c33.1,36.7,70.4,79.7,109.9,129.7c39.4,50.1,81.1,107.2,120.8,173.3c19.8,33.1,39,68.4,56.3,106.3c17.3,38,32.8,78.6,44.2,122
		c5.7,21.7,10.4,44.1,13.6,67.1c3.2,23,5,46.7,4.8,70.7c-0.2,24-2.2,48.5-6.5,72.9c-4.2,24.4-10.8,48.8-19.5,72.7
		c-8.7,23.9-19.8,47.4-32.8,70c-6.5,11.3-13.5,22.4-21,33.3c-7.5,10.9-15.4,21.5-23.7,31.9c-33.3,41.6-72.8,79.4-116.1,113.7
		c-43.4,34.3-90.5,65.4-140.2,93.9c-49.7,28.5-101.8,54.6-155.8,78.9c-54,24.3-109.7,46.8-167,67.9
		c-57.2,21.1-115.9,40.9-175.8,59.6c-119.7,37.4-244.2,70.7-372.1,101.2c-127.9,30.5-259.3,58.3-393.4,84.1
		c-67,12.9-134.7,25.4-203,37.4c-34.1,6-68.4,11.9-102.8,17.7c-17.3,2.9-34.4,5.8-51.8,8.5c-8.7,1.4-17.3,2.8-26,4.2
		c-8.7,1.3-17.4,2.7-26,4c-139,21.4-280.3,39.1-423.1,53.3c-285.5,28.4-576.9,43.2-868.2,45.8c-145.7,1.2-291.4-0.5-436.5-5.4
		c-72.5-2.4-144.9-5.6-217-9.4c-72.1-4-144-8.5-215.5-13.9c-143-10.7-284.7-24.4-424.3-41c-69.8-8.3-139.1-17.3-207.8-27.1
		c-68.7-9.8-136.8-20.2-204.2-31.5c-134.8-22.5-266.8-47.9-395.2-76.5c-128.4-28.6-253.3-60.3-373.7-95.3
		c-120.4-35.1-236.3-73.5-346.6-115.9c-110.3-42.3-214.9-88.6-312.2-139.5c-6.1-3.2-12.1-6.4-18.2-9.6c-6-3.3-12-6.5-18-9.7
		c-11.8-6.5-23.6-13-35.3-19.4c-23.4-12.9-46.5-25.6-69.3-38.2c-45.7-25.2-90.3-49.9-133.7-74.3c-43.4-24.4-85.5-48.5-126.1-72.5
		c-40.6-24-79.8-47.9-117.3-71.8c-37.4-24-73.2-48.1-106.9-72.5c-33.7-24.4-65.4-49.3-94.3-74.9c-28.9-25.7-55.3-52.2-77.3-80.4
		c-11-14.1-20.9-28.6-29.3-43.6c-8.3-15-15.1-30.5-19.6-46.4c-4.5-15.8-6.7-32-6.1-47.6c0.5-15.7,3.8-30.7,9-44.4
		c5.2-13.7,12.2-26.1,20-37.2c7.8-11.1,16.4-20.9,25.3-29.8c8.9-8.9,18-16.7,27-23.9c9-7.2,18-13.6,26.8-19.4
		c17.5-11.7,34.1-21.2,49.2-29.3c30.2-16,54.2-26.4,70.4-33.3c8.1-3.4,14.3-5.9,18.5-7.6c4.2-1.7,6.3-2.5,6.3-2.5s-2.1,0.9-6.2,2.7
		c-4.1,1.8-10.2,4.5-18.2,8.2c-8,3.7-17.9,8.4-29.4,14.2c-11.6,5.8-24.9,12.8-39.6,21.3c-14.7,8.5-30.9,18.5-47.8,30.6
		c-16.9,12.1-34.7,26.4-51.4,44.1c-8.4,8.8-16.4,18.6-23.6,29.4c-7.2,10.8-13.4,22.7-17.9,35.6c-4.5,12.9-7.1,26.9-7.2,41.3
		c-0.1,14.4,2.2,29.3,6.8,43.9c4.6,14.7,11.3,29.1,19.6,43.1c8.3,14.1,18.2,27.7,29.1,41.1c21.9,26.7,48.2,52,77.2,76.5
		c14.5,12.3,29.7,24.3,45.5,36.2c15.8,11.9,32.2,23.7,49.1,35.5c33.8,23.4,69.7,46.5,107.4,69.5c75.3,46.1,157.5,91.9,244.8,139.1
		c43.7,23.6,88.6,47.5,134.7,72c23,12.2,46.4,24.6,69.9,37.1c11.8,6.3,23.6,12.6,35.5,18.9c5.9,3.1,11.8,6.3,17.8,9.4
		c6,3.1,12,6.2,18,9.3c24.1,12.3,48.6,24.4,73.7,36.2c25,11.7,50.5,23.2,76.3,34.5c25.9,11.2,52.1,22.2,78.8,32.9
		c26.7,10.7,53.7,21.2,81.1,31.5c27.4,10.3,55.2,20.2,83.2,30.1c28.1,9.8,56.5,19.3,85.2,28.7c28.7,9.3,57.8,18.4,87.1,27.4
		c29.4,8.9,59,17.6,89,26.1c119.7,34,244,64.7,371.8,92.4c63.9,13.9,128.7,26.9,194.3,39.3c65.6,12.3,132,24,199.1,34.9
		c134.2,21.8,271.1,40.8,410.2,56.9c17.4,2.1,34.8,3.9,52.2,5.9c17.4,1.9,34.9,3.8,52.4,5.6c35,3.7,70.1,7.2,105.3,10.5
		c70.4,6.6,141.3,12.6,212.5,17.8c142.4,10.5,286.2,18.1,430.6,22.9c144.4,4.7,289.5,6.6,434.6,5.5c290.1-2.2,580.1-16.3,864.3-43.7
		c35.5-3.4,71-7,106.3-10.9c35.3-3.9,70.6-7.9,105.7-12.2l13.2-1.6l13.1-1.7c8.8-1.1,17.5-2.2,26.3-3.3c17.5-2.3,35-4.5,52.4-6.9
		c34.9-4.7,69.6-9.6,104.2-14.8c8.6-1.3,17.3-2.6,25.9-3.9c8.6-1.3,17.2-2.7,25.8-4c17.1-2.6,34.5-5.5,51.6-8.2
		c34.3-5.6,68.6-11.3,102.6-17.1c68.1-11.6,135.7-23.6,202.6-36c133.8-24.9,264.9-51.6,392.4-80.9c63.8-14.7,126.6-30,188.5-46.2
		c61.8-16.1,122.6-33.1,182.2-51.1c59.6-18,117.9-37,174.8-57.4c56.9-20.3,112.3-41.9,165.8-65.3c53.5-23.4,105.1-48.4,154.1-75.9
		c49-27.4,95.5-57.1,138.1-89.9c42.6-32.8,81.2-68.8,113.6-108.3c16.2-19.7,30.8-40.4,43.6-61.7c12.7-21.4,23.5-43.5,32.2-66.1
		c8.7-22.6,15.2-45.7,19.6-68.9c4.4-23.2,6.7-46.5,7.2-69.5c0.9-46.1-5.3-91-15.7-133.4c-10.4-42.5-25-82.5-41.4-120.1
		c-16.4-37.6-34.7-72.9-53.7-105.9c-9.5-16.5-19.2-32.5-28.9-48c-9.8-15.5-19.6-30.5-29.4-45c-19.7-29-39.3-56.1-58.4-81.4
		c-19.1-25.3-37.8-48.8-55.7-70.8c-17.9-21.9-35-42.2-51.2-60.8c-32.3-37.3-60.6-68.4-83.8-93.3c-23.2-24.9-41.3-43.8-53.5-56.5
		C6838.7-15,6832.4-21.6,6832.4-21.6z"/>
</g>
<g>
	<linearGradient id="SVGID_4_" gradientUnits="userSpaceOnUse" x1="6785.8418" y1="1255.2708" x2="288.8953" y2="-290.662">
		<stop  offset="0" style="stop-color:#FFFFFF"/>
		<stop  offset="0.3645" style="stop-color:#07ADD9"/>
		<stop  offset="0.7241" style="stop-color:#1E77BC"/>
		<stop  offset="1" style="stop-color:#1C194B"/>
	</linearGradient>
	<path fill="url(#SVGID_4_)" d="M302.8,268c0,0-1.5,1.3-4.5,3.8c-3,2.5-7.5,6.3-13.3,11.4c-5.8,5.1-13,11.4-21.2,19.3
		c-8.2,7.8-17.6,17.1-27.8,28c-5.1,5.4-10.3,11.3-15.7,17.6c-2.6,3.2-5.4,6.4-8.1,9.8c-2.7,3.4-5.5,6.9-8.2,10.5
		c-5.5,7.3-11,15-16.4,23.2c-5.4,8.3-10.6,17.1-15.6,26.4c-10,18.7-19,39.7-24.9,62.9c-2.9,11.6-5.2,23.7-6.3,36.3
		c-1.1,12.6-1.4,25.6-0.3,38.8c1,13.2,3.4,26.7,6.9,40.2c3.6,13.5,8.3,27.1,14.3,40.5c11.9,26.9,28.7,53.2,49.1,78.5
		c5.1,6.3,10.4,12.6,16,18.7c2.8,3.1,5.6,6.2,8.5,9.4c2.9,3.1,5.6,6.1,8.6,9.1c11.7,12.2,24.4,24.2,37.7,35.9
		c26.6,23.3,56.2,45.5,88,66.6c63.7,42.2,136.4,80.1,215.4,114.7c79.1,34.6,164.6,66,255.2,94.7c90.6,28.8,186.3,54.9,286.1,78.9
		c99.8,23.9,203.8,45.7,311.3,65.4c214.9,39.5,443.4,71.1,680.8,95.6c237.3,24.6,483.4,41.9,733.8,52.4
		c250.4,10.5,505.1,14,759.6,10.2c127.3-2,254.5-5.6,381.2-11.4c126.6-5.6,252.7-13.3,377.6-23c249.7-19.4,494.8-47,730.4-83.7
		c235.6-36.7,461.7-82.4,672.9-138c52.8-13.9,104.6-28.5,155.4-43.7c50.8-15.2,100.5-31.1,149.1-47.6c48.6-16.5,96-33.8,142.1-51.7
		c46.1-18,90.9-36.6,134.3-56c86.7-38.8,167.8-80.7,241.3-126.1c36.8-22.7,71.6-46.3,104.3-70.8c32.7-24.6,63.1-50,90.9-76.5
		c27.8-26.4,52.9-53.9,74.8-82.1c21.9-28.3,40.5-57.3,55.4-86.8c7.5-14.7,13.9-29.6,19.4-44.4c5.5-14.8,10-29.7,13.6-44.4
		c7.1-29.4,10.3-58.3,10.3-85.7c0-27.5-3.2-53.4-8.3-77.5c-2.6-12-5.6-23.5-8.9-34.6c-3.4-11-7.1-21.5-11-31.6
		c-7.8-20-16.4-38.1-25.1-54.2c-4.3-8.1-8.6-15.7-12.9-22.8c-2.1-3.6-4.3-7-6.3-10.4c-2.1-3.3-4.1-6.6-6.2-9.7
		c-16.3-25-30.3-43.2-39.9-55.3c-4.8-6-8.5-10.6-11-13.6c-2.5-3-3.8-4.6-3.8-4.6s1.3,1.5,4,4.4c1.3,1.5,3,3.3,4.9,5.5
		c1.9,2.2,4.2,4.7,6.7,7.7c5.1,5.8,11.2,13.2,18.3,22.2c7.1,8.9,15.1,19.5,23.7,31.8c2.2,3.1,4.3,6.3,6.6,9.5
		c2.2,3.3,4.5,6.7,6.7,10.2c4.6,7,9.2,14.5,13.8,22.5c9.3,16,18.6,33.9,27.3,54c4.3,10,8.4,20.6,12.3,31.7
		c3.8,11.1,7.3,22.8,10.3,35c6,24.4,10.1,51.1,11,79.4c0.9,28.4-1.5,58.4-8,89.2c-3.2,15.4-7.5,30.9-12.8,46.5
		c-5.3,15.6-11.6,31.2-18.9,46.7c-14.5,31-33,61.7-54.8,91.5c-21.8,29.8-47,58.7-74.8,86.6c-27.8,27.9-58.4,54.8-91.1,80.7
		c-32.8,25.9-67.8,50.8-104.7,74.7c-36.9,24-75.7,47.1-116.2,69.2c-40.5,22.2-82.6,43.6-126.1,64.1c-43.6,20.6-88.6,40.3-134.9,59.3
		c-23.2,9.5-46.7,18.8-70.4,28c-23.8,9.1-47.9,18.1-72.3,26.9c-24.4,8.8-49.1,17.4-74.1,25.8c-25,8.4-50.2,16.7-75.7,24.8
		c-51,16.2-103.1,31.7-156.2,46.5c-212.2,59.3-439.5,108.1-676.3,147.4c-236.8,39.3-483.3,68.9-734.3,89.6
		c-251.1,20.7-506.8,32.5-762.6,36.5c-255.8,4-511.7,0.2-763.2-11c-251.6-11.2-498.8-29.9-737.3-56
		c-238.5-26.2-468.2-59.8-684.3-101.8c-108.1-21-212.7-44-313.2-69.4c-100.5-25.3-196.9-53.1-288.4-83.4
		c-91.4-30.5-177.9-63.5-258.1-100.1c-80.2-36.6-154.1-76.6-219.4-121.5c-32.6-22.4-63-46.1-90.6-71.1c-27.5-25.1-52.5-51.4-73-79.5
		c-20.6-28.1-37.5-57.5-49.1-87.6c-5.9-15-10.3-30.3-13.5-45.4c-3.1-15.1-4.8-30.1-5.1-44.8c-0.8-29.3,3.9-56.9,11.7-81.5
		c3.9-12.3,8.6-23.8,13.7-34.7c5.1-10.8,10.7-20.9,16.6-30.4c5.8-9.4,11.9-18.2,18-26.3c6.1-8.1,12.3-15.7,18.4-22.7
		c12.2-14.1,24.1-26,35.2-36.2c11-10.3,21.1-18.9,30-26.1c8.9-7.2,16.6-13,22.8-17.6c6.2-4.6,11-8,14.2-10.2
		C301.2,269.2,302.8,268,302.8,268z"/>
</g>
<g>
	<linearGradient id="SVGID_5_" gradientUnits="userSpaceOnUse" x1="7155.1787" y1="1103.2509" x2="67.1879" y2="282.2693">
		<stop  offset="0" style="stop-color:#FFFFFF"/>
		<stop  offset="0.3645" style="stop-color:#07ADD9"/>
		<stop  offset="0.7241" style="stop-color:#1E77BC"/>
		<stop  offset="1" style="stop-color:#1C194B"/>
	</linearGradient>
	<path fill="url(#SVGID_5_)" d="M6853.6-12.2c0,0,1.6,1.5,4.8,4.4c3.2,2.9,7.9,7.3,14,13.1c3.1,2.9,6.5,6.2,10.3,9.8
		c3.8,3.7,7.9,7.6,12.4,12c8.9,8.8,19.2,19,30.5,30.9c11.4,11.9,23.9,25.3,37.2,40.5c6.7,7.6,13.6,15.6,20.7,24.1
		c7.1,8.5,14.3,17.4,21.8,26.8c14.8,18.8,30.1,39.5,45.5,62.4c15.4,22.9,30.6,48,45.1,75.6c14.4,27.6,28,57.8,39.3,90.7
		c11.3,32.9,20.1,68.7,24.7,107c2.2,19.1,3.4,38.9,3.2,59c-0.2,20.2-1.8,40.8-5,61.6c-6.3,41.6-18.9,83.9-37.6,124.8
		c-18.7,41-43.4,80.5-72.6,117.8c-14.6,18.7-30.3,36.7-47,54.3c-16.7,17.6-34.3,34.6-52.8,51.1c-36.9,33-77,63.8-119.6,93
		c-42.6,29.1-87.5,56.4-134.4,82.3c-93.8,51.7-195.2,97.5-302,139c-106.8,41.6-219.1,78.8-335.6,112.8
		c-116.5,33.9-237.2,64.5-361.2,92.2c-124,27.7-251.4,52.7-381.2,75.2c-129.9,22.5-262.3,42.6-396.6,60.5
		c-67.2,9-134.8,17.4-202.8,25.3c-17,1.9-34,3.9-51.1,5.8c-17,1.9-34.3,3.8-51.5,5.6c-34.3,3.6-68.7,7-103.1,10.3
		c-275.8,26-556.9,40.4-838.1,43.4c-140.6,1.5-281.3,0.1-421.3-4.1c-140-4.2-279.5-11.3-417.6-21.2c-138.2-10-275-22.8-410-38.5
		c-134.9-15.8-268-34.6-398.3-56.5c-130.4-21.9-258.1-47-382.3-75.5c-124.3-28.5-245.1-60.5-361.5-96.4
		c-116.4-36-228.5-75.9-334.8-120.9c-53.2-22.4-104.8-46.3-154.8-71.5c-25-12.6-49.5-25.6-73.6-39c-24.1-13.4-47.7-27.2-70.8-41.4
		c-46.1-28.5-90.2-58.8-131.5-91.2c-2.6-2-5.1-4.1-7.7-6.1l-3.8-3c-0.6-0.5-1.3-1.1-1.9-1.5l-1.8-1.5c-4.8-4-9.6-8-14.4-12
		c-9.6-8-19.1-16.1-28.6-24.1c-18.9-16.1-37.4-32.1-55.6-48.2C327.8,881.9,261.1,817,205.4,747.6c-27.7-34.8-52.7-70.7-72.6-108.9
		c-9.9-19.1-18.6-38.7-25.3-59c-6.7-20.2-11.5-41.1-13.7-62.1c-2.2-21-1.5-42.2,2.1-62.4c3.6-20.2,10.1-39.4,18.7-56.6
		c8.6-17.2,18.9-32.7,30.2-46.3c11.3-13.7,23.3-25.7,35.6-36.4c12.3-10.8,24.8-20.2,37.3-28.7c12.5-8.5,24.9-16.1,37.1-23.1
		c12.2-6.9,24.3-13.1,36-18.8c11.7-5.7,23.2-10.9,34.3-15.6c22.2-9.5,43.1-17.2,62.3-23.9c19.2-6.7,36.8-12.2,52.6-16.8
		c15.8-4.7,29.8-8.5,41.9-11.7c3-0.8,5.9-1.6,8.7-2.3c2.8-0.7,5.5-1.4,8-2c5.1-1.3,9.7-2.4,13.9-3.4c8.2-2,14.5-3.4,18.7-4.4
		c4.2-1,6.3-1.4,6.3-1.4s-8.2,3.2-24,9.3c-15.7,6.2-39.1,15.5-69,28.6c-14.9,6.5-31.5,14.1-49.5,22.8c-4.5,2.2-9.1,4.4-13.7,6.8
		c-2.3,1.2-4.7,2.4-7.1,3.6c-2.4,1.2-4.7,2.5-7.2,3.7c-4.8,2.5-9.7,5.1-14.7,7.8c-2.5,1.4-5,2.7-7.5,4.1c-2.5,1.4-5.1,2.8-7.6,4.2
		c-20.3,11.5-41.7,24.6-63.2,40c-10.7,7.7-21.5,15.9-32,24.9c-1.3,1.1-2.6,2.2-4,3.4c-1.3,1.2-2.6,2.3-3.9,3.5
		c-2.6,2.3-5.2,4.7-7.7,7.1c-2.6,2.4-5.1,4.9-7.6,7.4c-2.5,2.5-5,5-7.4,7.7c-9.8,10.4-18.9,21.6-27,33.7c-8.1,12-15,24.9-20.2,38.5
		c-5.2,13.6-8.6,27.9-9.8,42.6c-1.3,14.8-0.3,30,2.7,45.4c5.9,30.9,20.2,62.5,39.6,93.4c9.7,15.5,20.8,30.8,32.8,45.9
		c12,15.2,25.1,30.2,38.9,45.1c27.7,29.8,58.6,59,91.7,88.1c33,29.1,68.4,57.9,105.4,86.8c18.5,14.5,37.4,29,56.8,43.5
		c9.7,7.3,19.4,14.6,29.2,21.8c9.7,7.2,19.5,14.4,29.3,21.6c38.5,28.2,80.1,54.7,123.8,79.9c43.8,25.1,90,48.8,137.9,71.3
		c24,11.2,48.5,22.1,73.4,32.8c24.9,10.7,50.2,21,75.9,31c102.9,40.2,211.9,76.1,325.6,108.4c113.7,32.3,232,61,353.8,86.7
		c121.9,25.7,247.3,48.2,375.4,68c256.3,39.5,523.4,67.9,795.6,86.3c272.2,18.3,549.6,26.6,826.9,24.9c69.3-0.4,138.6-1.5,207.9-3.1
		c69.2-1.7,138.4-3.9,207.4-6.9c138-5.8,275.3-14.3,411.3-25.2c34-2.7,67.9-5.6,101.7-8.7c16.9-1.6,33.7-3.1,50.6-4.7
		c16.9-1.7,33.8-3.3,50.7-5c33.7-3.4,67.3-6.9,100.8-10.5c33.5-3.6,66.9-7.3,100.2-11.1c133.1-15.3,264.3-32.4,392.9-51.5
		c128.6-19.2,254.6-40.5,377.3-64.3c122.7-23.8,242-50,357-79.3c115-29.3,225.8-61.7,331-97.9c52.6-18.1,103.8-37.2,153.3-57.5
		c49.6-20.2,97.4-41.6,143.4-64.3c45.9-22.7,89.8-46.7,131.3-72.3c41.5-25.6,80.5-52.7,116.2-81.6c17.9-14.4,35-29.3,51.2-44.7
		c16.2-15.3,31.4-31.2,45.5-47.4c28.3-32.4,52.4-66.7,71-102.2c18.7-35.5,32-72.2,39.7-108.9c3.9-18.3,6.4-36.6,7.7-54.7
		c1.3-18.1,1.3-36,0.4-53.6c-2-35.1-8.1-68.8-16.6-100.3c-1-4-2.2-7.9-3.3-11.8c-1.2-3.9-2.3-7.7-3.5-11.6c-2.4-7.7-5-15.1-7.6-22.5
		c-5.4-14.7-11.1-29-17.1-42.7c-12.1-27.4-25.2-52.7-38.6-76.1c-13.3-23.3-26.9-44.7-40.1-64.2c-26.4-39-51.2-70.8-71.8-96.1
		c-20.7-25.3-37.3-44.1-48.5-56.7c-5.7-6.3-9.9-11.1-12.8-14.2C6855-10.6,6853.6-12.2,6853.6-12.2z"/>
</g>
</svg>
